<svg width="34" height="34" viewBox="0 0 34 34" fill="none" xmlns="http://www.w3.org/2000/svg">
<rect width="33.075" height="33.475" rx="16.5375" fill="#3291C2"/>
<path d="M13.9733 21.2378H11.6847V13.8796H13.9733V21.2378ZM12.8167 12.8952C12.103 12.8952 11.5124 12.28 11.5124 11.5417C11.5124 10.828 12.103 10.2374 12.8167 10.2374C13.555 10.2374 14.1456 10.828 14.1456 11.5417C14.1456 12.28 13.555 12.8952 12.8167 12.8952ZM22.5128 21.2378H20.2487V17.6694C20.2487 16.8081 20.2241 15.7253 19.0429 15.7253C17.8616 15.7253 17.6894 16.6358 17.6894 17.5956V21.2378H15.4007V13.8796H17.5909V14.8886H17.6155C17.9354 14.3226 18.6737 13.7073 19.7812 13.7073C22.0944 13.7073 22.5374 15.2331 22.5374 17.2019V21.2378H22.5128Z" fill="white"/>
</svg>
